<?xml version="1.0" encoding="utf-8"?>
<!-- Generator: Adobe Illustrator 28.0.0, SVG Export Plug-In . SVG Version: 6.00 Build 0)  -->
<svg version="1.1" id="Слой_1" xmlns="http://www.w3.org/2000/svg" xmlns:xlink="http://www.w3.org/1999/xlink" x="0px" y="0px"
	 viewBox="0 0 9 10" style="enable-background:new 0 0 9 10;" xml:space="preserve">
<style type="text/css">
	.st0{fill-rule:evenodd;clip-rule:evenodd;fill:#727272;}
</style>
<path class="st0" d="M5.4,5c0,0.1,0,0.2-0.1,0.2L1,9.9C0.9,10,0.9,10,0.8,10c-0.1,0-0.2,0-0.2-0.1L0.1,9.4C0,9.3,0,9.2,0,9.2
	C0,9.1,0,9,0.1,8.9L3.8,5L0.1,1.1C0,1,0,0.9,0,0.8s0-0.2,0.1-0.2l0.5-0.5C0.6,0,0.7,0,0.8,0C0.9,0,0.9,0,1,0.1l4.3,4.7
	C5.4,4.8,5.4,4.9,5.4,5z M9,5c0,0.1,0,0.2-0.1,0.2L4.6,9.9C4.5,10,4.4,10,4.4,10c-0.1,0-0.2,0-0.2-0.1L3.7,9.4
	C3.6,9.3,3.6,9.2,3.6,9.2c0-0.1,0-0.2,0.1-0.2L7.3,5L3.7,1.1C3.6,1,3.6,0.9,3.6,0.8s0-0.2,0.1-0.2l0.5-0.5C4.2,0,4.3,0,4.4,0
	c0.1,0,0.2,0,0.2,0.1l4.3,4.7C9,4.8,9,4.9,9,5z"/>
</svg>
