<?xml version="1.0" encoding="UTF-8"?>
<svg id="_Слой_1" data-name="Слой 1" xmlns="http://www.w3.org/2000/svg" viewBox="0 0 15.99 16">
  <defs>
    <style>
      .cls-1 {
        fill: #fe3e57;
        fill-rule: evenodd;
        stroke-width: 0px;
      }
    </style>
  </defs>
  <path class="cls-1" d="m13.65,10.34c-.87-.87-1.91-1.52-3.04-1.91,1.21-.84,2.01-2.23,2.01-3.81,0-2.55-1.58-4.62-5.03-4.62-1.65,0-4.21,1.81-4.21,4.36,0,1.58.79,3.24,2,4.08-1.13.39-2.17,1.04-3.04,1.91-1.51,1.51-2.34,4.42-2.34,5.66h1.25c0-2.82,3.59-6.73,6.41-6.73,4.62,0,7.12,3.91,7.12,6.73h1.21c0-1.24-.83-4.15-2.34-5.66ZM4.62,4.62c0-1.86,1.36-3.33,3.13-3.44,2.53-.16,3.62,1.58,3.62,3.44s-1.09,2.92-3.38,2.92c-.96,0-3.38-1.06-3.38-2.92Z"/>
</svg>