<?xml version="1.0" encoding="UTF-8"?>
<svg id="_Слой_1" data-name="Слой 1" xmlns="http://www.w3.org/2000/svg" viewBox="0 0 16 16">
  <defs>
    <style>
      .cls-1 {
        fill: #fe3e57;
        fill-rule: evenodd;
        stroke-width: 0px;
      }
    </style>
  </defs>
  <path class="cls-1" d="m14.12,16H1.87c-1.03,0-1.87-.84-1.87-1.88V3.13c0-1.03.84-1.88,1.87-1.88h.75V0h1.25v1.25h8.25V0h1.25v1.25h.75c1.03,0,1.87.48,1.87,1.86v11c0,1.29-.84,1.89-1.87,1.89Zm.62-12.87c0-.34-.28-.62-.62-.62h-.75v1.25h-1.25v-1.25H3.87v1.25h-1.25v-1.25h-.75c-.34,0-.62.28-.62.62v1.5h13.5v-1.5Zm0,2.75H1.25v8.25c0,.35.28.62.62.62h12.25c.34,0,.62-.28.62-.62V5.88Zm-2.37,3.81h1.25v1.25h-1.25v-1.25Zm0-2.5h1.25v1.25h-1.25v-1.25Zm-2.5,5h1.25v1.25h-1.25v-1.25Zm0-2.5h1.25v1.25h-1.25v-1.25Zm0-2.5h1.25v1.25h-1.25v-1.25Zm-2.5,5h1.25v1.25h-1.25v-1.25Zm0-2.5h1.25v1.25h-1.25v-1.25Zm0-2.5h1.25v1.25h-1.25v-1.25Zm-2.5,5h1.25v1.25h-1.25v-1.25Zm0-2.5h1.25v1.25h-1.25v-1.25Zm0-2.5h1.25v1.25h-1.25v-1.25Zm-2.5,5h1.25v1.25h-1.25v-1.25Zm0-2.5h1.25v1.25h-1.25v-1.25Zm0-2.5h1.25v1.25h-1.25v-1.25Z"/>
</svg>