<?xml version="1.0" encoding="UTF-8"?>
<svg id="a" data-name="Слой 1" xmlns="http://www.w3.org/2000/svg" viewBox="0 0 19.8 20">
  <defs>
    <style>
      .b {
        fill: #fe3e57;
        fill-rule: evenodd;
        stroke-width: 0px;
      }
    </style>
  </defs>
  <path class="b" d="m17.07,17.07c-1.89,1.89-4.4,2.93-7.97,2.93-1.77,0-4.28-1.04-6.17-2.93-1.89-1.89-2.93-4.4-2.93-7.07S1.04,4.82,2.93,2.93c1.89-1.89,3.73-2.93,6.17-2.93,3.87,0,6.08,1.04,7.97,2.93,1.89,1.89,2.73,3.91,2.73,7.07,0,2.67-.84,5.18-2.73,7.07ZM9.1,1.17C5.13,1.17,1.17,5.13,1.17,10s3.96,8.83,7.93,8.83c5.77,0,9.73-3.96,9.73-8.83S14.87,1.17,9.1,1.17Zm.09,12.04c-.11.11-.26.17-.41.17s-.3-.06-.41-.17l-3.14-3.14c-.23-.23-.23-.6,0-.83.23-.23.6-.23.83,0l2.72,2.72,5.17-5.17c.23-.23.6-.23.83,0,.23.23.23.6,0,.83l-5.59,5.59Z"/>
</svg>