<?xml version="1.0" encoding="UTF-8"?>
<svg id="_Слой_1" data-name="Слой 1" xmlns="http://www.w3.org/2000/svg" viewBox="0 0 16 16">
  <defs>
    <style>
      .cls-1 {
        fill: #fe3e57;
        fill-rule: evenodd;
        stroke-width: 0px;
      }
    </style>
  </defs>
  <path class="cls-1" d="m15.38,0H.62c-.34,0-.62.28-.62.62v11.48c0,1.24.28,1.52.62,1.52h5.53l1.32,2.09q.11.18.47.29s.47-.11.59-.29l1.32-2.09h5.53c.35,0,.62-.29.62-1.53V.72c0-.34-.28-.72-.62-.72Zm-.62,12.38h-5.25c-.21,0-.41.11-.53.29l-1.87,1.54-.07-1.54c-.11-.18-.31-.29-.53-.29H1.25V1.25h13.5v11.12ZM4.09,6.81c0-.43.35-.78.78-.78s.78.35.78.78-.35.78-.78.78-.78-.35-.78-.78Zm6.25,0c0-.43.35-.78.78-.78s.78.35.78.78-.35.78-.78.78-.78-.35-.78-.78Z"/>
  <path class="cls-1" d="m7.31,6.74c0-.43.35-.78.78-.78s.78.35.78.78-.35.78-.78.78-.78-.35-.78-.78Z"/>
</svg>