<?xml version="1.0" encoding="utf-8"?>
<!-- Generator: Adobe Illustrator 28.0.0, SVG Export Plug-In . SVG Version: 6.00 Build 0)  -->
<svg version="1.1" id="Слой_1" xmlns="http://www.w3.org/2000/svg" xmlns:xlink="http://www.w3.org/1999/xlink" x="0px" y="0px"
	 viewBox="0 0 16 16" style="enable-background:new 0 0 16 16;" xml:space="preserve">
<style type="text/css">
	.st0{fill-rule:evenodd;clip-rule:evenodd;fill:#727272;}
</style>
<path class="st0" d="M8,0L0.2,6.9C0,7.1-0.1,7.5,0.2,7.8l0,0c0.2,0.3,0.6,0.3,0.9,0.1l0.3-0.3V14c0,1.1,0.9,2,1.9,2h3.6v-5.3
	c0-0.6,0.5-1.1,1.1-1.1l0,0c0.6,0,1.1,0.5,1.1,1.1V16h3.5c1.1,0,1.9-0.9,1.9-2V7.6l0.3,0.3c0.3,0.2,0.7,0.2,0.9-0.1l0,0
	c0.2-0.3,0.2-0.7-0.1-0.9L8,0z M13.3,14c0,0.4-0.3,0.7-0.6,0.7h-2.3v-4c0-1.4-1.1-2.5-2.4-2.5l0,0c-1.3,0-2.4,1.1-2.4,2.5v4H3.3
	c-0.4,0-0.6-0.3-0.6-0.7V6.5L8,1.7l5.3,4.7V14z"/>
</svg>
